<!--
Adapted from Chromium chrome/browser/resources/new_tab_page/icons/generic_globe.svg.
Cropped outer padding and matched the reference gray.

Copyright 2015 The Chromium Authors

Redistribution and use in source and binary forms, with or without
modification, are permitted provided that the following conditions are
met:

   * Redistributions of source code must retain the above copyright
notice, this list of conditions and the following disclaimer.
   * Redistributions in binary form must reproduce the above
copyright notice, this list of conditions and the following disclaimer
in the documentation and/or other materials provided with the
distribution.
   * Neither the name of Google LLC nor the names of its
contributors may be used to endorse or promote products derived from
this software without specific prior written permission.

THIS SOFTWARE IS PROVIDED BY THE COPYRIGHT HOLDERS AND CONTRIBUTORS
"AS IS" AND ANY EXPRESS OR IMPLIED WARRANTIES, INCLUDING, BUT NOT
LIMITED TO, THE IMPLIED WARRANTIES OF MERCHANTABILITY AND FITNESS FOR
A PARTICULAR PURPOSE ARE DISCLAIMED. IN NO EVENT SHALL THE COPYRIGHT
OWNER OR CONTRIBUTORS BE LIABLE FOR ANY DIRECT, INDIRECT, INCIDENTAL,
SPECIAL, EXEMPLARY, OR CONSEQUENTIAL DAMAGES (INCLUDING, BUT NOT
LIMITED TO, PROCUREMENT OF SUBSTITUTE GOODS OR SERVICES; LOSS OF USE,
DATA, OR PROFITS; OR BUSINESS INTERRUPTION) HOWEVER CAUSED AND ON ANY
THEORY OF LIABILITY, WHETHER IN CONTRACT, STRICT LIABILITY, OR TORT
(INCLUDING NEGLIGENCE OR OTHERWISE) ARISING IN ANY WAY OUT OF THE USE
OF THIS SOFTWARE, EVEN IF ADVISED OF THE POSSIBILITY OF SUCH DAMAGE.
-->
<svg viewBox="2 2 20 20" xmlns="http://www.w3.org/2000/svg"><path d="M12 2c5.52 0 10 4.48 10 10s-4.48 10-10 10S2 17.52 2 12 6.48 2 12 2zM4 12h4.4c3.407.022 4.922 1.73 4.543 5.127H9.488v2.47a8.004 8.004 0 0 0 10.498-8.083C19.327 12.504 18.332 13 17 13c-2.137 0-3.206-.916-3.206-2.75h-3.748c-.274-2.728.683-4.092 2.87-4.092 0-.975.327-1.597.811-1.97A8.004 8.004 0 0 0 4 12z" fill="#9aa0a7"/></svg>
